<?xml version="1.0" standalone="no"?>
<!DOCTYPE svg PUBLIC "-//W3C//DTD SVG 20010904//EN"
 "http://www.w3.org/TR/2001/REC-SVG-20010904/DTD/svg10.dtd">
<svg version="1.0" xmlns="http://www.w3.org/2000/svg"
 width="512.000000pt" height="512.000000pt" viewBox="0 0 512.000000 512.000000"
 preserveAspectRatio="xMidYMid meet">

<g transform="translate(0.000000,512.000000) scale(0.100000,-0.100000)"
fill="rgb(202,138,4)" stroke="none">
<path d="M1560 5105 c-36 -8 -107 -35 -159 -61 -203 -100 -342 -297 -371 -526
-14 -114 -14 -3802 0 -3916 20 -160 81 -282 200 -402 54 -54 98 -87 155 -117
162 -84 78 -78 1175 -78 1097 0 1013 -6 1175 78 57 30 101 63 155 117 119 120
180 242 200 402 14 114 14 3802 0 3916 -20 160 -81 282 -200 402 -54 54 -97
87 -155 117 -163 84 -71 77 -1150 80 -794 1 -971 -1 -1025 -12z m1824 -529
c72 -35 126 -88 163 -158 l28 -53 0 -1550 0 -1550 -27 -50 c-36 -68 -101 -128
-173 -162 l-60 -28 -755 0 -755 0 -60 28 c-72 34 -137 94 -173 162 l-27 50 0
1550 0 1550 24 45 c37 70 61 98 118 137 93 64 72 62 893 60 l745 -2 59 -29z
m-556 -3924 c87 -63 95 -190 16 -264 -47 -44 -73 -48 -284 -48 -211 0 -237 4
-284 48 -92 86 -63 239 54 285 8 3 116 5 240 4 218 -2 226 -3 258 -25z"/>
</g>
</svg>
