<?xml version="1.0" standalone="no"?>
<!DOCTYPE svg PUBLIC "-//W3C//DTD SVG 20010904//EN"
 "http://www.w3.org/TR/2001/REC-SVG-20010904/DTD/svg10.dtd">
<svg version="1.0" xmlns="http://www.w3.org/2000/svg"
 width="512.000000pt" height="512.000000pt" viewBox="0 0 512.000000 512.000000"
 preserveAspectRatio="xMidYMid meet">

<g transform="translate(0.000000,512.000000) scale(0.100000,-0.100000)"
fill="#ffffff" stroke="none">
<path d="M1548 3887 c-32 -14 -75 -39 -95 -57 -21 -18 -269 -262 -552 -544
-460 -458 -517 -518 -543 -574 -54 -113 -46 -250 21 -350 15 -23 268 -280 562
-570 609 -601 578 -577 734 -577 73 0 99 4 136 23 70 34 122 84 159 154 32 58
35 70 35 153 0 138 -11 155 -293 437 l-237 238 1535 2 1535 3 55 27 c72 35
136 99 169 168 22 46 26 69 26 140 0 71 -4 94 -26 140 -44 91 -114 151 -210
181 -59 18 -114 19 -1572 19 l-1512 0 237 238 c282 282 293 299 293 437 0 83
-3 95 -35 153 -62 116 -154 174 -285 179 -67 3 -89 0 -137 -20z"/>
</g>
</svg>
