<?xml version="1.0" standalone="no"?>
<!DOCTYPE svg PUBLIC "-//W3C//DTD SVG 20010904//EN"
 "http://www.w3.org/TR/2001/REC-SVG-20010904/DTD/svg10.dtd">
<svg version="1.0" xmlns="http://www.w3.org/2000/svg"
 width="512.000000pt" height="512.000000pt" viewBox="0 0 512.000000 512.000000"
 preserveAspectRatio="xMidYMid meet">

<g transform="translate(0.000000,512.000000) scale(0.100000,-0.100000)"
fill="#ffffff" stroke="none">
<path d="M3344 3896 c-53 -17 -127 -68 -158 -109 -56 -76 -70 -117 -71 -212 0
-138 11 -154 293 -437 l237 -238 -1535 -2 -1535 -3 -55 -27 c-72 -35 -136 -99
-169 -168 -22 -46 -26 -69 -26 -140 0 -71 4 -94 26 -140 44 -91 114 -151 210
-181 59 -18 114 -19 1572 -19 l1512 0 -237 -237 c-282 -283 -293 -300 -293
-438 0 -83 3 -95 35 -153 60 -113 153 -173 279 -180 91 -5 166 19 233 75 24
19 274 265 557 546 460 458 517 519 543 575 54 113 46 250 -21 350 -15 23
-268 280 -562 570 -597 590 -577 573 -719 579 -43 1 -92 -3 -116 -11z"/>
</g>
</svg>
