<?xml version="1.0" standalone="no"?>
<!DOCTYPE svg PUBLIC "-//W3C//DTD SVG 20010904//EN"
 "http://www.w3.org/TR/2001/REC-SVG-20010904/DTD/svg10.dtd">
<svg version="1.0" xmlns="http://www.w3.org/2000/svg"
 width="512.000000pt" height="512.000000pt" viewBox="0 0 512.000000 512.000000"
 preserveAspectRatio="xMidYMid meet">

<g transform="translate(0.000000,512.000000) scale(0.100000,-0.100000)"
fill="none" stroke="orange" stroke-width="200">
<path d="M1690 4364 c-141 -38 -247 -146 -284 -289 -12 -44 -16 -112 -16 -272
l0 -213 195 0 195 0 2 198 3 197 775 0 775 0 3 -197 2 -198 196 0 196 0 -4
238 c-3 213 -6 242 -25 289 -44 109 -133 197 -243 240 -42 17 -106 18 -880 20
-712 2 -843 0 -890 -13z"/>
<path d="M725 3483 c-87 -20 -150 -65 -188 -137 -21 -39 -22 -54 -25 -383 l-3
-343 846 0 845 0 0 120 0 120 360 0 360 0 0 -120 0 -120 846 0 845 0 -3 343
c-3 328 -4 344 -25 382 -28 52 -78 99 -128 122 -38 17 -131 18 -1875 19 -1009
1 -1844 0 -1855 -3z"/>
<path d="M512 1723 l3 -798 29 -53 c34 -61 80 -99 144 -118 67 -21 3677 -21
3744 0 64 19 110 57 144 118 l29 53 3 798 2 797 -845 0 -845 0 0 -120 0 -120
-360 0 -360 0 0 120 0 120 -845 0 -845 0 2 -797z"/>
</g>
</svg>
