<?xml version="1.0" standalone="no"?>
<!DOCTYPE svg PUBLIC "-//W3C//DTD SVG 20010904//EN"
 "http://www.w3.org/TR/2001/REC-SVG-20010904/DTD/svg10.dtd">
<svg version="1.0" xmlns="http://www.w3.org/2000/svg"
 width="512.000000pt" height="512.000000pt" viewBox="0 0 512.000000 512.000000"
 preserveAspectRatio="xMidYMid meet">

<g transform="translate(0.000000,512.000000) scale(0.100000,-0.100000)"
fill="none" stroke="orange" stroke-width="150">
<path d="M2272 5067 c93 -230 127 -439 97 -603 -27 -154 -81 -269 -253 -539
-245 -385 -339 -628 -376 -965 -6 -58 -13 -107 -15 -109 -2 -2 -30 12 -62 30
-127 71 -243 159 -347 261 -99 98 -110 106 -123 90 -38 -49 -176 -258 -222
-336 -172 -293 -290 -604 -337 -892 -24 -147 -24 -412 0 -549 35 -199 130
-435 243 -602 284 -422 808 -735 1383 -828 135 -21 147 -18 50 14 -525 172
-752 668 -623 1356 8 44 17 83 19 87 3 5 22 -13 43 -40 92 -116 174 -162 227
-128 31 21 29 14 43 176 32 386 168 695 413 941 48 48 130 116 185 152 103 68
209 125 218 116 3 -3 -7 -39 -22 -80 -22 -63 -27 -91 -27 -184 -1 -134 12
-170 129 -355 130 -207 185 -344 201 -506 4 -35 11 -64 17 -64 21 0 175 111
220 158 l46 50 34 -46 c203 -283 301 -586 275 -852 -32 -336 -261 -608 -642
-762 -67 -27 -69 -28 -26 -22 82 11 273 64 365 101 843 334 1231 1183 1064
2327 -25 173 -61 356 -69 356 -4 0 -31 -33 -61 -72 -29 -40 -86 -105 -125
-144 -148 -147 -263 -177 -351 -92 -32 31 -33 35 -33 107 0 105 -17 292 -41
448 -92 611 -364 1157 -770 1548 -219 211 -492 396 -716 484 l-53 21 22 -53z"/>
</g>
</svg>
