<?xml version="1.0" standalone="no"?>
<!DOCTYPE svg PUBLIC "-//W3C//DTD SVG 20010904//EN"
 "http://www.w3.org/TR/2001/REC-SVG-20010904/DTD/svg10.dtd">
<svg version="1.0" xmlns="http://www.w3.org/2000/svg"
 width="512.000000pt" height="512.000000pt" viewBox="0 0 512.000000 512.000000"
 preserveAspectRatio="xMidYMid meet">

<g transform="translate(0.000000,512.000000) scale(0.100000,-0.100000)"
fill="rgb(59,130,246)" stroke="none">
<path d="M3117 4465 c-82 -28 -126 -100 -127 -201 0 -82 30 -139 95 -179 l48
-30 310 -3 310 -3 -585 -587 c-472 -473 -588 -595 -598 -626 -38 -119 52 -258
177 -273 101 -11 78 -31 715 605 l587 585 3 -310 3 -310 30 -48 c40 -65 97
-95 179 -95 104 1 182 53 206 138 15 56 14 1163 -2 1216 -16 52 -72 108 -124
124 -63 18 -1174 16 -1227 -3z"/>
<path d="M1207 4260 c-174 -30 -318 -178 -347 -356 -13 -79 -13 -2609 0 -2688
30 -183 173 -326 356 -356 79 -13 2609 -13 2688 0 185 30 328 175 357 362 6
38 9 250 7 519 -3 421 -4 457 -22 489 -26 49 -46 69 -86 90 -123 62 -276 5
-309 -117 -7 -24 -11 -199 -11 -480 l0 -443 -1280 0 -1280 0 0 1280 0 1280
443 0 c293 0 455 4 482 11 61 17 120 82 134 148 23 107 -15 197 -104 245 -39
21 -50 21 -510 23 -259 0 -492 -3 -518 -7z"/>
</g>
</svg>
