<?xml version="1.0" standalone="no"?>
<!DOCTYPE svg PUBLIC "-//W3C//DTD SVG 20010904//EN"
 "http://www.w3.org/TR/2001/REC-SVG-20010904/DTD/svg10.dtd">
<svg version="1.0" xmlns="http://www.w3.org/2000/svg"
 width="512.000000pt" height="512.000000pt" viewBox="0 0 512.000000 512.000000"
 preserveAspectRatio="xMidYMid meet">

<g transform="translate(0.000000,512.000000) scale(0.100000,-0.100000)"
fill="none" stroke="orange" stroke-width="150">
<path d="M3765 4500 l-319 -319 57 -233 56 -233 -109 -109 c-100 -101 -110
-108 -128 -95 -10 8 -59 44 -108 81 -345 261 -778 388 -1214 357 -717 -51
-1324 -503 -1586 -1181 -143 -369 -153 -810 -27 -1203 214 -672 814 -1166
1523 -1254 120 -15 347 -13 470 4 952 136 1641 989 1569 1943 -28 369 -175
742 -397 1009 -29 34 -52 66 -52 70 0 5 48 56 108 115 l107 107 225 -54 c124
-30 229 -55 234 -55 10 0 636 628 636 639 0 4 -75 25 -167 46 -93 20 -222 50
-287 65 -69 15 -123 33 -128 41 -4 8 -35 138 -69 289 -33 151 -64 278 -68 282
-4 4 -150 -136 -326 -312z m248 -283 c19 -88 38 -161 40 -164 3 -2 74 -20 159
-39 84 -19 159 -37 167 -40 10 -3 -31 -51 -128 -148 l-143 -143 -171 41 -172
41 -41 170 -41 170 141 142 c77 79 143 139 147 135 4 -4 22 -78 42 -165z
m-1573 -506 c254 -52 496 -166 697 -325 29 -22 52 -43 53 -46 0 -3 -54 -59
-120 -125 -117 -117 -121 -120 -144 -105 -12 8 -62 41 -110 73 -365 246 -853
275 -1249 76 -135 -68 -216 -127 -328 -238 -237 -236 -359 -511 -376 -841 -10
-200 39 -435 128 -612 176 -352 511 -608 896 -685 122 -24 368 -24 481 1 394
85 713 328 890 681 83 166 121 317 129 516 13 308 -70 558 -273 837 -17 23
-16 24 106 147 l123 123 39 -46 c157 -188 286 -469 334 -727 29 -152 26 -462
-5 -605 -110 -511 -426 -919 -886 -1140 -766 -369 -1692 -75 -2110 670 -358
639 -234 1452 298 1957 243 231 533 372 876 428 123 20 425 13 551 -14z m-185
-541 c93 -14 172 -34 253 -66 74 -29 207 -105 253 -144 l30 -25 -149 -149
-149 -148 -84 41 c-107 52 -183 71 -284 71 -356 0 -643 -306 -622 -661 19
-314 272 -567 586 -586 288 -17 539 159 637 447 15 43 19 83 19 180 -1 112 -4
133 -29 200 -16 41 -40 92 -53 114 l-25 39 148 148 c82 82 152 149 155 149 23
0 143 -212 180 -318 88 -254 70 -560 -48 -797 -79 -158 -229 -328 -371 -420
-307 -198 -693 -225 -1017 -71 -257 121 -435 310 -538 571 -51 129 -70 236
-70 385 1 143 19 242 67 372 88 235 284 452 513 567 178 89 407 128 598 101z
m18 -660 c31 -12 57 -24 57 -28 0 -4 -75 -82 -167 -174 l-168 -168 75 -75 75
-75 171 171 172 171 21 -56 c93 -250 -58 -514 -320 -555 -271 -44 -512 197
-468 468 41 260 305 414 552 321z"/>
</g>
</svg>
