<?xml version="1.0" standalone="no"?>
<!DOCTYPE svg PUBLIC "-//W3C//DTD SVG 20010904//EN"
 "http://www.w3.org/TR/2001/REC-SVG-20010904/DTD/svg10.dtd">
<svg version="1.0" xmlns="http://www.w3.org/2000/svg"
 width="512.000000pt" height="512.000000pt" viewBox="0 0 512.000000 512.000000"
 preserveAspectRatio="xMidYMid meet">

<g transform="translate(0.000000,512.000000) scale(0.100000,-0.100000)"
fill="none" stroke="orange" stroke-width="200">
<path d="M1405 4673 c-47 -24 -86 -64 -106 -108 -15 -32 -19 -65 -19 -166 l0
-126 -162 -6 c-139 -4 -175 -9 -245 -31 -159 -51 -295 -167 -373 -317 -75
-144 -71 -46 -68 -1601 l3 -1393 26 -67 c74 -190 207 -323 397 -397 l67 -26
1625 0 1625 0 70 22 c188 60 337 204 414 401 l26 67 3 1385 c2 986 0 1402 -8
1445 -16 84 -89 229 -150 297 -70 79 -183 152 -283 184 -70 22 -106 27 -244
31 l-163 6 0 124 c0 135 -10 176 -58 226 -79 83 -219 90 -300 14 -53 -49 -66
-92 -70 -234 l-4 -133 -848 0 -848 0 -4 133 c-4 142 -17 185 -70 234 -55 51
-170 69 -233 36z m2746 -861 c39 -20 62 -41 84 -77 30 -48 30 -51 30 -184 l0
-136 -1705 0 -1705 0 0 136 c0 133 0 136 30 184 22 36 45 57 84 77 l53 28
1538 0 1538 0 53 -28z m117 -1782 c2 -697 0 -970 -9 -1009 -15 -71 -82 -142
-151 -159 -67 -17 -3029 -17 -3096 0 -64 16 -134 86 -150 150 -13 51 -18 1959
-5 1971 3 4 772 6 1707 5 l1701 -3 3 -955z"/>
<path d="M3115 2541 c-22 -11 -177 -137 -344 -280 l-303 -262 -107 104 c-123
120 -168 144 -253 134 -136 -16 -221 -156 -173 -284 14 -38 55 -85 194 -226
97 -98 196 -190 220 -204 53 -32 137 -36 191 -10 19 9 213 170 432 357 431
369 438 378 438 476 -1 154 -159 259 -295 195z"/>
</g>
</svg>
