<?xml version="1.0" standalone="no"?>
<!DOCTYPE svg PUBLIC "-//W3C//DTD SVG 20010904//EN"
 "http://www.w3.org/TR/2001/REC-SVG-20010904/DTD/svg10.dtd">
<svg version="1.0" xmlns="http://www.w3.org/2000/svg"
 width="512.000000pt" height="513.000000pt" viewBox="0 0 512.000000 513.000000"
 preserveAspectRatio="xMidYMid meet">

<g transform="translate(0.000000,513.000000) scale(0.100000,-0.100000)"
fill="#000000" stroke="none">
<path d="M845 5118 c-139 -26 -301 -147 -369 -277 -71 -136 -66 42 -66 -2276
0 -2318 -5 -2140 66 -2276 70 -134 231 -251 378 -278 41 -8 579 -11 1721 -11
1625 0 1664 0 1739 20 177 45 316 170 384 346 l27 69 3 1630 c2 897 0 1646 -3
1665 -5 30 -101 130 -673 704 -385 386 -681 674 -699 682 -27 12 -227 14
-1245 13 -716 -1 -1233 -5 -1263 -11z m2295 -675 c0 -437 5 -479 66 -601 45
-88 139 -186 223 -231 124 -66 169 -71 608 -71 l393 0 -2 -1527 c-3 -1478 -4
-1529 -22 -1566 -24 -49 -67 -92 -120 -120 l-41 -22 -1660 -3 c-1825 -2 -1709
-6 -1787 58 -20 17 -48 53 -62 82 l-26 52 0 2071 0 2071 26 52 c14 29 42 65
62 82 75 61 14 58 1230 59 l1112 1 0 -387z m813 -601 c-156 -1 -278 2 -310 8
-98 21 -174 99 -193 199 -5 30 -10 169 -10 310 l0 256 385 -385 385 -385 -257
-3z"/>
<path d="M1792 4294 c-96 -32 -164 -76 -234 -152 -114 -124 -168 -302 -139
-458 15 -77 48 -158 94 -226 l41 -61 -25 -16 c-80 -52 -189 -181 -243 -288
-56 -113 -70 -191 -71 -395 0 -174 1 -188 21 -215 12 -15 36 -37 55 -48 33
-19 52 -20 674 -20 622 0 641 1 674 20 19 11 43 33 55 48 20 27 21 41 21 215
-1 204 -10 257 -66 380 -50 112 -145 228 -243 298 l-29 21 41 62 c213 320 62
735 -307 845 -86 25 -229 21 -319 -10z m289 -302 c149 -77 179 -284 57 -398
-55 -53 -95 -68 -173 -68 -78 0 -118 15 -173 68 -92 85 -103 224 -27 327 71
98 207 128 316 71z m-18 -787 c195 -41 332 -203 353 -417 l7 -68 -458 0 -458
0 7 68 c13 131 53 218 137 301 60 60 131 98 212 116 81 18 118 18 200 0z"/>
<path d="M3343 2711 c-52 -13 -83 -40 -105 -88 -22 -51 -19 -89 12 -140 39
-64 58 -68 325 -68 223 0 242 1 275 20 97 58 97 202 0 260 -32 18 -54 20 -255
22 -121 1 -235 -2 -252 -6z"/>
<path d="M1287 1888 c-39 -23 -77 -86 -77 -128 0 -44 38 -105 79 -128 l39 -22
1250 2 c1245 3 1251 3 1278 24 50 37 66 68 66 124 0 56 -16 87 -66 124 -27 21
-32 21 -1279 23 l-1252 3 -38 -22z"/>
<path d="M1317 1096 c-130 -47 -143 -208 -24 -274 30 -16 116 -17 1277 -17
1234 0 1245 0 1280 20 97 58 97 202 0 260 -35 20 -48 20 -1265 22 -1025 2
-1236 0 -1268 -11z"/>
</g>
</svg>
