<?xml version="1.0" standalone="no"?>
<!DOCTYPE svg PUBLIC "-//W3C//DTD SVG 20010904//EN"
 "http://www.w3.org/TR/2001/REC-SVG-20010904/DTD/svg10.dtd">
<svg version="1.0" xmlns="http://www.w3.org/2000/svg"
 width="512.000000pt" height="512.000000pt" viewBox="0 0 512.000000 512.000000"
 preserveAspectRatio="xMidYMid meet">

<g transform="translate(0.000000,512.000000) scale(0.100000,-0.100000)"
fill="none" stroke="orange" stroke-width="200">
<path d="M2425 4844 c-186 -15 -414 -63 -590 -124 -128 -44 -373 -167 -492
-247 -634 -426 -1003 -1114 -1003 -1871 0 -609 230 -1165 660 -1592 349 -348
773 -560 1270 -637 158 -24 472 -24 630 0 558 86 1053 360 1401 776 295 352
470 763 519 1219 16 141 8 460 -15 590 -168 980 -923 1722 -1899 1867 -108 16
-384 27 -481 19z m458 -330 c20 -3 37 -9 37 -13 0 -5 -313 -232 -331 -239 -5
-2 -307 207 -338 234 -9 8 8 13 79 23 76 10 484 6 553 -5z m-735 -329 l281
-200 0 -235 0 -235 -328 -237 -329 -238 -202 95 c-112 52 -205 96 -207 98 -2
2 -42 161 -88 353 l-85 348 57 59 c69 70 188 165 298 237 89 57 294 162 311
158 6 -2 137 -93 292 -203z m1303 142 c188 -95 304 -176 458 -319 l73 -67 -82
-338 c-45 -186 -83 -345 -86 -354 -3 -10 -89 -56 -210 -113 l-206 -96 -329
237 -328 238 2 235 2 235 280 202 c154 111 285 202 291 202 7 1 67 -27 135
-62z m-2452 -938 l53 -221 -193 -194 c-106 -106 -195 -191 -197 -189 -8 8 19
171 49 290 16 65 50 171 75 235 45 112 141 300 154 300 3 0 30 -100 59 -221z
m3289 129 c68 -126 135 -299 171 -443 30 -119 57 -282 49 -290 -2 -2 -91 83
-197 189 l-193 194 53 221 c29 121 56 221 59 221 4 0 30 -42 58 -92z m-1392
-502 l301 -218 -116 -357 -117 -356 -379 0 -379 0 -113 345 c-62 190 -112 352
-112 360 0 16 587 449 605 447 5 -1 145 -100 310 -221z m-1434 -178 l198 -92
59 -180 c33 -100 91 -279 130 -398 l71 -217 -120 -165 c-102 -140 -125 -166
-147 -166 -34 0 -765 79 -779 84 -16 6 -110 231 -143 345 -15 53 -36 138 -46
188 l-17 93 292 300 c161 165 296 300 299 300 3 0 95 -41 203 -92z m2748 -208
l293 -300 -18 -93 c-10 -50 -30 -135 -46 -188 -29 -97 -125 -335 -138 -344 -9
-5 -741 -85 -782 -85 -23 0 -43 22 -148 165 l-121 165 130 397 c71 219 133
399 137 401 4 1 91 43 193 92 102 48 190 89 196 89 7 1 143 -134 304 -299z
m-1101 -1018 c63 -86 115 -164 115 -173 1 -9 -93 -183 -209 -387 -144 -255
-216 -372 -230 -376 -26 -7 -374 -7 -400 0 -14 4 -86 122 -230 376 -115 204
-210 379 -209 387 0 9 52 87 115 173 l114 158 410 0 410 0 114 -158z m-1721
-281 c145 -16 265 -31 266 -33 8 -11 296 -518 296 -522 0 -8 -109 37 -225 94
-173 84 -325 191 -481 337 -80 74 -148 153 -133 153 8 0 133 -13 277 -29z
m2625 -36 c-108 -121 -273 -257 -426 -350 -104 -63 -367 -185 -367 -170 0 3
288 514 296 523 2 4 487 59 532 61 20 1 16 -7 -35 -64z"/>
</g>
</svg>
